# Rhino

mtllib base.mtl
usemtl diffuse_200_0_0_255
v -20 10 10
v -20 10 -10
v 20 10 10
v 20 10 -10
v 6.6666665077209473 10 -10
v -6.6666665077209473 10 -10
v -20 10 0
v 20 10 0
v -6.6666665077209473 10 10
v 6.6666665077209473 10 10
v -20 5 -10
v -20 5 10
v 20 5 -10
v 20 5 10
v -6.6666665077209473 5 -10
v 6.6666665077209473 5 -10
v 20 5 0
v -20 5 0
v 6.6666665077209473 5 10
v -6.6666665077209473 5 10
v 20 5 -10
v -20 5 -10
v 20 10 -10
v -20 10 -10
v 6.6666665077209473 10 -10
v -6.6666665077209473 10 -10
v -6.6666665077209473 5 -10
v 6.6666665077209473 5 -10
v -20 5 -10
v -20 5 10
v -20 10 -10
v -20 10 10
v -20 10 0
v -20 5 0
v -20 5 10
v 20 5 10
v -20 10 10
v 20 10 10
v -6.6666665077209473 10 10
v 6.6666665077209473 10 10
v 6.6666665077209473 5 10
v -6.6666665077209473 5 10
v 20 5 10
v 20 5 -10
v 20 10 10
v 20 10 -10
v 20 10 0
v 20 5 0
vt 0.79853516817092896 0
vt 0.40000000596046448 0
vt 0.79853516817092896 0.80000001192092896
vt 0.40000000596046448 0.80000001192092896
vt 0.40000000596046448 0.53333336114883423
vt 0.40000000596046448 0.26666668057441711
vt 0.59926760196685791 0
vt 0.59926760196685791 0.80000001192092896
vt 0.79853516817092896 0.26666668057441711
vt 0.79853516817092896 0.53333336114883423
vt 0.39853516221046448 0.20000000298023224
vt 0 0.20000000298023224
vt 0.39853516221046448 0.99853515625
vt 0 0.99853515625
vt 0.39853516221046448 0.46617838740348816
vt 0.39853516221046448 0.73235678672790527
vt 0.19926758110523224 0.99853515625
vt 0.19926758110523224 0.20000000298023224
vt 0 0.73235678672790527
vt 0 0.46617838740348816
vt 0.89999997615814209 0
vt 0.89999997615814209 0.80000001192092896
vt 0.99853515625 0
vt 0.99853515625 0.80000001192092896
vt 0.99853515625 0.26666668057441711
vt 0.99853515625 0.53333336114883423
vt 0.89999997615814209 0.53333336114883423
vt 0.89999997615814209 0.26666668057441711
vt 0.39853516221046448 0.10000000149011612
vt 0 0.10000000149011612
vt 0.39853516221046448 0.19853515923023224
vt 0 0.19853515923023224
vt 0.19926758110523224 0.19853515923023224
vt 0.19926758110523224 0.10000000149011612
vt 0.80000001192092896 0
vt 0.80000001192092896 0.80000001192092896
vt 0.89853513240814209 0
vt 0.89853513240814209 0.80000001192092896
vt 0.89853513240814209 0.26666668057441711
vt 0.89853513240814209 0.53333336114883423
vt 0.80000001192092896 0.53333336114883423
vt 0.80000001192092896 0.26666668057441711
vt 0.39853516221046448 0
vt 0 0
vt 0.39853516221046448 0.098535157740116119
vt 0 0.098535157740116119
vt 0.19926758110523224 0.098535157740116119
vt 0.19926758110523224 0
vn 0 1 0
vn 0 1 0
vn 0 1 0
vn 0 1 0
vn 0 1 0
vn 0 1 0
vn 0 1 0
vn 0 1 0
vn 0 1 0
vn 0 1 0
vn 0 -1 0
vn 0 -1 0
vn 0 -1 0
vn 0 -1 0
vn 0 -1 0
vn 0 -1 0
vn 0 -1 0
vn 0 -1 0
vn 0 -1 0
vn 0 -1 0
vn 0 0 -1
vn 0 0 -1
vn 0 0 -1
vn 0 0 -1
vn 0 0 -1
vn 0 0 -1
vn 0 0 -1
vn 0 0 -1
vn -1 0 0
vn -1 0 0
vn -1 0 0
vn -1 0 0
vn -1 0 0
vn -1 0 0
vn 0 0 1
vn 0 0 1
vn 0 0 1
vn 0 0 1
vn 0 0 1
vn 0 0 1
vn 0 0 1
vn 0 0 1
vn 1 0 0
vn 1 0 0
vn 1 0 0
vn 1 0 0
vn 1 0 0
vn 1 0 0
f 7/7/7 1/1/1 9/9/9 10/10/10 3/3/3 8/8/8 4/4/4 5/5/5 6/6/6 2/2/2
f 18/18/18 11/11/11 15/15/15 16/16/16 13/13/13 17/17/17 14/14/14 19/19/19 20/20/20 12/12/12
f 25/25/25 23/23/23 21/21/21 28/28/28 27/27/27 22/22/22 24/24/24 26/26/26
f 33/33/33 31/31/31 29/29/29 34/34/34 30/30/30 32/32/32
f 39/39/39 37/37/37 35/35/35 42/42/42 41/41/41 36/36/36 38/38/38 40/40/40
f 47/47/47 45/45/45 43/43/43 48/48/48 44/44/44 46/46/46
